<svg height="24" viewBox="0 0 30 24" width="30" xmlns="http://www.w3.org/2000/svg"><path d="m0 16.32c0 4.92 2.96296296 7.68 6.2962963 7.68 2.96296296 0 5.1851852-2.4 5.1851852-5.16 0-2.88-2.09876545-5.04-4.93827162-5.04-.37037037 0-1.2345679.12-1.35802469.24.24691358-3.84 3.33333333-8.52 7.28395061-11.16l-3.7037037-2.88c-4.69135803 3.36-8.7654321 9.6-8.7654321 16.32zm17.5308642 0c0 4.92 2.8395062 7.68 6.1728395 7.68 3.0864198 0 5.308642-2.4 5.308642-5.16 0-2.88-2.0987655-5.04-4.9382716-5.04-.4938272 0-1.2345679.12-1.3580247.24.2469136-3.84 3.3333333-8.52 7.2839506-11.16l-3.7037037-2.88c-4.8148148 3.36-8.7654321 9.6-8.7654321 16.32z" fill="#c0e3e7"/></svg>