<?xml version="1.0" encoding="UTF-8"?>
<svg width="50px" height="50px" viewBox="0 0 512 512" version="1.1" xmlns="http://www.w3.org/2000/svg" xmlns:xlink="http://www.w3.org/1999/xlink">
    <!-- Generator: Sketch 53 (72520) - https://sketchapp.com -->
    <title>Branding/ButterflyIcon</title>
    <desc>Created with Sketch.</desc>
    <g id="Branding/ButterflyIcon" stroke="none" stroke-width="1" fill="none" fill-rule="evenodd">
        <path d="M50,0 L462,0 C489.614237,-5.07265313e-15 512,22.3857625 512,50 L512,462 C512,489.614237 489.614237,512 462,512 L50,512 C22.3857625,512 3.38176876e-15,489.614237 0,462 L0,50 C-3.38176876e-15,22.3857625 22.3857625,5.07265313e-15 50,0 Z" id="BG" fill="#2CE6CE"></path>
        <path d="M394.379952,244.908346 C386.149443,252.445186 376.436126,258.913513 365.267119,264.307507 C357.743632,244.485212 343.530557,228.179979 323.289395,216.910628 C317.679709,213.788556 310.602712,215.813972 307.485036,221.435061 C304.367361,227.05809 306.389637,234.148504 312.000291,237.272517 C329.203196,246.848359 338.690847,259.688936 343.590605,272.859481 C325.949927,278.465041 305.621598,282.05295 282.69569,283.597972 C283.261308,258.852372 286.467119,233.145986 292.121356,209.27771 C303.409492,161.628504 336.38092,143.405579 355.030799,136.783913 C364.485521,133.427953 375.955738,131.235612 387.047264,131.235612 C398.86615,131.235612 410.255981,133.725894 418.314092,139.949658 C426.831283,146.527651 431.416271,156.249068 431.942179,168.84314 C432.960097,193.228687 418.216271,223.085868 394.379952,244.908346 M346.458402,318.602641 C341.946053,343.012451 325.887942,370.32112 311.392058,378.235481 C308.193027,379.981395 305.586731,380.461789 303.645811,379.663074 C298.043874,377.356215 288.266634,360.646287 284.291816,324.064569 C283.686489,318.487153 283.244843,312.755428 282.965908,306.914038 C307.178015,305.350576 328.91845,301.637474 348.106828,295.798995 C348.508765,304.360674 347.628378,312.274064 346.458402,318.602641 M167.64678,272.859481 C172.545569,259.688936 182.03322,246.848359 199.236126,237.272517 C204.84678,234.148504 206.869056,227.05809 203.75138,221.435061 C200.633705,215.813002 193.557676,213.787586 187.947022,216.910628 C167.70586,228.179979 153.492785,244.485212 145.969298,264.307507 C134.800291,258.913513 125.086973,252.445186 116.856465,244.908346 C93.0201453,223.085868 78.2763196,193.227717 79.2942373,168.842169 C79.8201453,156.249068 84.4051332,146.527651 92.9223245,139.949658 C108.543632,127.883533 136.677288,129.85169 156.205617,136.783913 C174.855496,143.40655 207.826925,161.628504 219.115061,209.27771 C224.769298,233.145986 227.975109,258.852372 228.540726,283.597972 C205.614818,282.05295 185.286489,278.465041 167.64678,272.859481 M226.9446,324.064569 C222.970751,360.646287 213.192542,377.356215 207.589637,379.663074 C205.647748,380.461789 203.042421,379.981395 199.844358,378.235481 C185.347506,370.32112 169.289395,343.012451 164.778983,318.602641 C163.609007,312.274064 162.727651,304.361645 163.129588,295.798995 C182.317966,301.637474 204.058402,305.350576 228.270508,306.914038 C227.991574,312.755428 227.550896,318.487153 226.9446,324.064569 M455.166392,167.868766 C454.351864,148.357028 446.515545,132.323533 432.504891,121.50255 C412.909734,106.36773 378.657918,103.686261 347.268087,114.829448 C307.950896,128.789002 279.608039,161.252923 269.505375,203.898274 C263.385278,229.732766 259.958644,257.629553 259.439516,284.457828 C258.172688,284.468504 256.89908,284.474327 255.618692,284.474327 C254.337337,284.474327 253.063729,284.468504 251.796901,284.457828 C251.277772,257.629553 247.851138,229.732766 241.731041,203.898274 C231.628378,161.253894 203.285521,128.789972 163.969298,114.830418 C132.580436,103.68529 98.3257143,106.366759 78.7305569,121.50255 C64.7199031,132.323533 56.8845521,148.357028 56.0700242,167.868766 C54.756707,199.319494 72.0409685,235.427612 101.177046,262.10449 C112.189153,272.185959 125.295206,280.616622 140.43322,287.375127 C139.153801,298.516372 139.622567,310.401015 141.922809,322.84369 C147.815303,354.73211 167.9354,387.338694 188.722809,398.687625 C195.054044,402.145487 200.736368,403.345015 205.57414,403.344045 C209.918935,403.344045 213.583826,402.376464 216.424504,401.207022 C238.50586,392.115454 246.900048,355.609435 250.052591,326.584936 C250.717966,320.459192 251.198354,314.164582 251.496659,307.74769 C252.864213,307.760307 254.237579,307.76613 255.618692,307.76613 C256.998838,307.76613 258.372203,307.760307 259.739758,307.74769 C260.038063,314.164582 260.51845,320.459192 261.183826,326.584936 C266.896174,379.169094 282.624019,396.188609 294.811913,401.207022 C297.653559,402.376464 301.317482,403.345015 305.662276,403.344045 C310.501017,403.344045 316.183341,402.144517 322.513608,398.688595 C343.301017,387.339664 363.420145,354.733081 369.314576,322.84369 C371.61385,310.401015 372.082615,298.516372 370.803196,287.375127 C385.941211,280.616622 399.046295,272.185959 410.05937,262.10449 C439.195448,235.427612 456.479709,199.319494 455.166392,167.868766" id="Butterfly" fill="#FFFFFF"></path>
    </g>
</svg>