<svg id="Layer_1" data-name="Layer 1" xmlns="http://www.w3.org/2000/svg" xmlns:xlink="http://www.w3.org/1999/xlink" viewBox="0 0 340.16 85.04"><defs><style>.cls-1,.cls-3{fill:#1c75bc;}.cls-2{fill:url(#linear-gradient);}.cls-3{font-size:7px;font-family:Roboto-Medium, Roboto;font-weight:500;}</style><linearGradient id="linear-gradient" x1="15.99" y1="24.45" x2="59.57" y2="63.46" gradientUnits="userSpaceOnUse"><stop offset="0.02" stop-color="#27aae1"/><stop offset="0.68" stop-color="#2bb673"/></linearGradient></defs><path class="cls-1" d="M107.33,62.44H104V43.91H82V62.44H78.7V23.8H82V41.15H104V23.8h3.29Z"/><path class="cls-1" d="M137.6,58.8Q134.74,63,128.44,63c-3.06,0-5.38-.89-7-2.67s-2.4-4.41-2.44-7.89V33.72h3.16V52q0,8.2,6.63,8.2,6.9,0,8.74-5.71V33.72h3.18V62.44h-3.08Z"/><path class="cls-1" d="M174.81,48.37q0,6.72-3,10.66a9.5,9.5,0,0,1-8,3.94q-6,0-9.08-4.46l-.13,3.93h-3V21.68h3.16V37.89a10,10,0,0,1,9-4.7,9.6,9.6,0,0,1,8.06,3.89q3,3.89,2.95,10.82Zm-3.18-.55c0-3.79-.73-6.71-2.2-8.78A7.19,7.19,0,0,0,163.22,36a8.75,8.75,0,0,0-5.18,1.5,9.21,9.21,0,0,0-3.21,4.39V54.79a8.52,8.52,0,0,0,8.44,5.42,7.12,7.12,0,0,0,6.14-3.11Q171.63,54,171.63,47.82Z"/><path class="cls-1" d="M191,57h17.54v5.42H184.33V23.8H191Z"/><path class="cls-1" d="M228.47,63a13.36,13.36,0,0,1-9.94-3.86c-2.54-2.58-3.81-6-3.81-10.29V48a17.27,17.27,0,0,1,1.66-7.68A12.6,12.6,0,0,1,221,35.08a12.29,12.29,0,0,1,6.69-1.89q5.86,0,9.06,3.75T240,47.52v2.6H221.22a8.64,8.64,0,0,0,2.38,5.63,7.12,7.12,0,0,0,5.24,2.07,8.74,8.74,0,0,0,7.22-3.58l3.47,3.31a11.54,11.54,0,0,1-4.6,4A14.49,14.49,0,0,1,228.47,63Zm-.77-24.6a5.44,5.44,0,0,0-4.29,1.86,9.64,9.64,0,0,0-2.08,5.17h12.29v-.48A7.87,7.87,0,0,0,231.89,40,5.37,5.37,0,0,0,227.7,38.37Z"/><path class="cls-1" d="M264.86,62.44a10,10,0,0,1-.74-2.68,10.84,10.84,0,0,1-14.59.74,7.87,7.87,0,0,1-2.74-6.1,8.17,8.17,0,0,1,3.41-7q3.42-2.45,9.75-2.45h4V43a5.06,5.06,0,0,0-1.25-3.57,5,5,0,0,0-3.79-1.34,5.69,5.69,0,0,0-3.61,1.1,3.42,3.42,0,0,0-1.41,2.8H247.4A7.11,7.11,0,0,1,249,37.59a10.45,10.45,0,0,1,4.25-3.23,15,15,0,0,1,6-1.17,12,12,0,0,1,8,2.54,9,9,0,0,1,3.08,7.12V55.8A14.62,14.62,0,0,0,271.45,62v.45Zm-7.08-4.65a7.41,7.41,0,0,0,3.59-.92,6.24,6.24,0,0,0,2.54-2.5V49h-3.48A9.54,9.54,0,0,0,255,50.2a4.06,4.06,0,0,0-1.8,3.53,3.77,3.77,0,0,0,1.23,3A4.76,4.76,0,0,0,257.78,57.79Z"/><path class="cls-1" d="M294.86,39.62a15.14,15.14,0,0,0-2.63-.22c-3,0-4.94,1.14-6,3.4V62.44h-6.45V33.72H286l.16,3.22a7.26,7.26,0,0,1,6.47-3.75,6.23,6.23,0,0,1,2.29.37Z"/><path class="cls-1" d="M307.64,33.72l.18,3.32a10.34,10.34,0,0,1,8.36-3.85q9,0,9.13,10.27v19h-6.45V43.83a5.87,5.87,0,0,0-1.18-4,5,5,0,0,0-3.86-1.32A6.21,6.21,0,0,0,308,42V62.44h-6.45V33.72Z"/><path class="cls-2" d="M60,23.16C54.82,19.9,40.08,11.5,40.08,11.5s-4-1.91-7.37,0L11.88,23.67S7.52,26.89,7.69,29.8s0,24.34,0,24.2.88,5.19,3.43,7c2.37,1.72,19.61,11.69,19.61,11.69s4.38,3.11,10.72-.39c6.78-3.74,19.44-10.85,19.44-10.85s3.87-1.65,3.87-8.5V29.5S65.1,26.41,60,23.16ZM61.52,56l-23,12.91h-.11v0l-4.66,0-.21-26.58H17.85L18,60.91l-4.88-2.78,0-31.25,4.67-2.73,0,14.05,15.9.12,0-24.51h4.87l-.06,21.13.08,28.43L61.52,51.85Z"/><text class="cls-3" transform="translate(324.42 31.63) scale(1.16 1)">TM</text></svg>