<?xml version="1.0" encoding="utf-8"?>
<!-- Generator: Adobe Illustrator 13.0.2, SVG Export Plug-In . SVG Version: 6.00 Build 14948)  -->
<!DOCTYPE svg PUBLIC "-//W3C//DTD SVG 1.1//EN" "http://www.w3.org/Graphics/SVG/1.1/DTD/svg11.dtd">
<svg version="1.1" id="Layer_1" xmlns="http://www.w3.org/2000/svg" xmlns:xlink="http://www.w3.org/1999/xlink" x="0px" y="0px"
	 width="133.756px" height="30px" viewBox="146.689 246.138 533.756 102" enable-background="new 146.689 246.138 533.756 102"
	 xml:space="preserve">
<g>
	<path fill="#000000" d="M252.565,340.478v-6.227c5.856-0.625,6.728-4.986,6.728-11.586v-21.799h-18.312v22.672
		c0,6.6,1.371,10.213,6.978,10.713v6.227h-34.502v-6.227c6.477-0.5,7.099-5.98,7.099-10.713v-51.321
		c0-3.361,0.372-10.711-7.099-10.711v-6.229h34.502v6.229c-6.978,0-6.978,6.975-6.978,11.211v20.053h18.312v-20.304
		c0-3.112,0.124-10.96-6.728-10.96v-6.229h34.505v6.229c-7.101,0-7.347,5.854-7.347,11.457v50.2c0,5.729,0.621,10.588,7.347,11.088
		v6.227H252.565L252.565,340.478z"/>
	<path fill="#000000" d="M408.202,341.708c-7.029,0-14.322-1.832-21.68-5.441l-0.647-0.317l-0.038-0.724l-0.962-20.658l-0.062-1.278
		h1.281h8.699h0.981l0.212,0.957c2.055,9.172,6.596,18.976,13.182,18.976c3.839,0,6.626-3.296,6.626-7.836
		c0-2.39,0-5.66-8.728-14.99l-10.746-11.349c-10.363-11.003-11.689-18.109-11.689-23.07c0-10.598,7.527-22.002,24.053-22.002
		c4.602,0,13.683,1.003,22.832,7.729l0.498,0.364v0.621v18.846v1.223h-1.223h-8.334h-1.078l-0.137-1.067
		c-1.611-12.579-5.912-19.229-12.439-19.229c-5.242,0-6.627,3.863-6.627,5.907c0,2.914,1.086,5.524,7.029,11.714l8.816,9.182
		c12.822,13.446,16.533,19.841,16.533,28.511C434.554,329.3,426.306,341.708,408.202,341.708L408.202,341.708z"/>
	<g>
		<path fill="#000000" d="M483.726,340.38h1.221v-1.223v-6.041v-1.164l-1.158-0.057c-5.783-0.293-6.328-3.045-6.328-10.256v-57.752
			c5.215,0.849,10.137,8.773,10.137,18.493l0.008,0.365h0.957h6.641h1.223v-6.771v-19.449v-1.223h-1.223h-57.748h-1.221v1.223
			v19.449v6.771h1.221h6.643h0.955l0.01-0.365c0-9.72,4.918-17.645,10.135-18.493v57.752c0,7.211-0.541,9.963-6.328,10.256
			l-1.158,0.057v1.164v6.041v1.223h1.223H483.726L483.726,340.38z"/>
	</g>
	<path fill="#000000" d="M556.724,340.378h-1.219H524.82h-1.225v-1.221v-6.041v-0.891l0.848-0.275
		c3.641-1.178,5.146-1.668,3.533-8.582l-2.551-10.654h-16.213l-2.539,9.717c-1.23,4.68,0.303,7.709,4.834,9.551l0.764,0.312v0.824
		v6.041v1.221h-1.223h-20.777h-1.225v-1.221v-6.041v-0.759l0.678-0.338c3.299-1.647,4.529-2.266,8.668-16.877l14.652-51.39
		l-1.734-6.93l-0.379-1.521h1.568h19.205h0.947l0.236,0.916l16.066,61.854c2.932,11.479,3.809,12.711,6.977,13.899l0.791,0.295
		v0.851v6.041v1.22H556.724z M511.904,302.415h10.863l-5.338-21.356L511.904,302.415L511.904,302.415z"/>
	<path fill="#000000" d="M587.917,341.71c-21.658,0-35.654-16.652-35.654-42.418c0-26.685,14.266-45.318,34.689-45.318
		c7.457,0,17.617,2.659,24.713,6.665l0.541,0.309l0.006,21.82h-11.729c0,0-4.031-20.306-13.41-20.306
		c-9.84,0-11.102,18.065-11.102,33.81c0,0.6-0.006,1.283-0.01,2.04c-0.053,8.021-0.184,26.804,5.924,32.947
		c1.312,1.32,2.811,1.961,4.578,1.961c1.709,0,2.922-0.412,3.611-1.227v-16.756c0-7.182-0.689-9.098-5.854-9.904l-1.033-0.164
		v-1.047v-6.039v-1.225h1.223h32.74h1.221v1.225v6.039v0.895l-0.848,0.271c-4.475,1.422-5.189,2.23-5.189,10.191v20.535v0.87
		l-0.828,0.285l-0.541,0.187C606.886,338.769,598.396,341.71,587.917,341.71L587.917,341.71z"/>
	<g>
		<path fill="#000000" d="M197.183,340.38h1.223v-1.223v-6.041v-1.164l-1.161-0.057c-5.783-0.293-6.329-3.045-6.329-10.256v-57.752
			c5.216,0.849,10.137,8.773,10.137,18.493l0.008,0.365h0.955h6.644h1.223v-6.771v-19.449v-1.223h-1.223h-57.748h-1.223v1.223
			v19.449v6.771h1.223h6.642h0.957l0.007-0.365c0-9.72,4.919-17.645,10.137-18.493v57.752c0,7.211-0.546,9.963-6.331,10.256
			l-1.16,0.057v1.164v6.041v1.223h1.223H197.183L197.183,340.38z"/>
	</g>
	<path fill="#000000" d="M676.453,282.756v-27.454h-58.498v8.444l1.18,0.043c5.061,0.189,5.949,2.912,5.949,8.562v50.958
		c0,5.648-0.891,8.371-5.949,8.562l-1.18,0.043v8.443h58.498v-27.453h-9.943c0,0,0.439,18.965-15.199,18.965h-3.967v-31.75
		c6.689,0.016,8.588,1.689,9.717,7.908l0.15,0.816h8.107V285.16h-8.096l-0.158,0.804c-1.109,5.727-2.967,7.221-9.721,7.234v-29.409
		h3.967c15.639,0,15.199,18.967,15.199,18.967H676.453z"/>
	<path fill="#000000" d="M349.453,282.756v-27.454h-58.498v8.444l1.18,0.043c5.059,0.189,5.949,2.912,5.949,8.562v50.958
		c0,5.648-0.891,8.371-5.949,8.562l-1.18,0.043v8.443h58.498v-27.453h-9.943c0,0,0.439,18.965-15.199,18.965h-3.967v-31.75
		c6.688,0.016,8.588,1.689,9.717,7.908l0.15,0.816h8.107V285.16h-8.097l-0.157,0.804c-1.11,5.727-2.968,7.221-9.722,7.234v-29.409
		h3.967c15.64,0,15.199,18.967,15.199,18.967H349.453z"/>
</g>
</svg>
